<svg xmlns="http://www.w3.org/2000/svg" viewBox="0 0 1440 320"><path fill="8E9293" fill-opacity="1" d="M0,64L7.7,64C15.5,64,31,64,46,85.3C61.9,107,77,149,93,154.7C108.4,160,124,128,139,133.3C154.8,139,170,181,186,202.7C201.3,224,217,224,232,240C247.7,256,263,288,279,298.7C294.2,309,310,299,325,250.7C340.6,203,356,117,372,90.7C387.1,64,403,96,418,96C433.5,96,449,64,465,90.7C480,117,495,203,511,213.3C526.5,224,542,160,557,149.3C572.9,139,588,181,604,181.3C619.4,181,635,139,650,112C665.8,85,681,75,697,64C712.3,53,728,43,743,42.7C758.7,43,774,53,790,80C805.2,107,821,149,836,160C851.6,171,867,149,883,165.3C898.1,181,914,235,929,240C944.5,245,960,203,975,176C991,149,1006,139,1022,122.7C1037.4,107,1053,85,1068,85.3C1083.9,85,1099,107,1115,117.3C1130.3,128,1146,128,1161,154.7C1176.8,181,1192,235,1208,250.7C1223.2,267,1239,245,1254,234.7C1269.7,224,1285,224,1301,229.3C1316.1,235,1332,245,1347,224C1362.6,203,1378,149,1394,133.3C1409,117,1425,139,1432,149.3L1440,160L1440,320L1432.3,320C1424.5,320,1409,320,1394,320C1378.1,320,1363,320,1347,320C1331.6,320,1316,320,1301,320C1285.2,320,1270,320,1254,320C1238.7,320,1223,320,1208,320C1192.3,320,1177,320,1161,320C1145.8,320,1130,320,1115,320C1099.4,320,1084,320,1068,320C1052.9,320,1037,320,1022,320C1006.5,320,991,320,975,320C960,320,945,320,929,320C913.5,320,898,320,883,320C867.1,320,852,320,836,320C820.6,320,805,320,790,320C774.2,320,759,320,743,320C727.7,320,712,320,697,320C681.3,320,666,320,650,320C634.8,320,619,320,604,320C588.4,320,573,320,557,320C541.9,320,526,320,511,320C495.5,320,480,320,465,320C449,320,434,320,418,320C402.6,320,387,320,372,320C356.1,320,341,320,325,320C309.7,320,294,320,279,320C263.2,320,248,320,232,320C216.8,320,201,320,186,320C170.3,320,155,320,139,320C123.9,320,108,320,93,320C77.4,320,62,320,46,320C31,320,15,320,8,320L0,320Z"></path></svg>